<?xml version="1.0" standalone="no"?>
<!DOCTYPE svg PUBLIC "-//W3C//DTD SVG 20010904//EN"
 "http://www.w3.org/TR/2001/REC-SVG-20010904/DTD/svg10.dtd">
<svg version="1.0" xmlns="http://www.w3.org/2000/svg"
 width="612.000000pt" height="408.000000pt" viewBox="0 0 612.000000 408.000000"
 preserveAspectRatio="xMidYMid meet">

<g transform="translate(0.000000,408.000000) scale(0.100000,-0.100000)"
fill="#000000" stroke="none">
<path d="M1990 2330 l0 -130 343 0 342 0 73 123 c39 68 72 127 72 130 0 4
-187 7 -415 7 l-415 0 0 -130z"/>
<path d="M3017 2445 c-20 -7 -44 -18 -53 -25 -10 -9 -910 -1500 -961 -1592 -2
-5 264 -8 591 -8 l596 0 0 125 0 125 -361 0 c-308 0 -360 2 -356 14 3 8 65
115 138 238 73 123 198 335 279 473 81 137 151 250 156 252 5 2 117 -178 248
-399 131 -222 296 -498 365 -615 l126 -212 168 -1 c93 0 166 3 164 8 -560 933
-936 1553 -956 1575 -45 50 -88 62 -144 42z"/>
</g>
</svg>
