<?xml version="1.0" standalone="no"?>
<!DOCTYPE svg PUBLIC "-//W3C//DTD SVG 20010904//EN"
 "http://www.w3.org/TR/2001/REC-SVG-20010904/DTD/svg10.dtd">
<svg version="1.0" xmlns="http://www.w3.org/2000/svg"
 width="325.000000pt" height="260.000000pt" viewBox="0 0 325.000000 260.000000"
 preserveAspectRatio="xMidYMid meet">

<g transform="translate(0.000000,260.000000) scale(0.100000,-0.100000)"
fill="#000000" stroke="none">
<path d="M1320 1683 c0 -5 11 -37 23 -73 l23 -65 97 -3 c54 -1 97 -7 97 -12 0
-6 -67 -145 -150 -310 -82 -165 -150 -302 -150 -305 0 -3 37 -5 83 -5 l83 0
27 56 c16 31 27 58 25 59 -2 1 -25 7 -53 13 -40 8 -10 10 150 8 l199 -1 27
-65 28 -65 80 -3 c45 -2 81 1 81 6 0 5 -9 32 -21 59 l-21 51 -61 8 -62 9 83 3
c45 1 82 6 82 10 0 3 -12 37 -26 74 -24 61 -30 67 -57 70 -30 3 -33 8 -90 153
-33 83 -62 152 -64 155 -3 3 -8 -2 -13 -10 -40 -70 -30 -32 17 60 32 63 60
118 61 122 2 4 -109 8 -247 8 -138 0 -251 -3 -251 -7z m362 -407 c14 -36 23
-67 20 -70 -7 -7 -122 -8 -122 -1 0 11 65 135 70 135 4 0 18 -29 32 -64z"/>
</g>
</svg>
