<?xml version="1.0" encoding="UTF-8" standalone="no" ?>
<!DOCTYPE svg PUBLIC "-//W3C//DTD SVG 1.1//EN" "http://www.w3.org/Graphics/SVG/1.1/DTD/svg11.dtd">
<svg xmlns="http://www.w3.org/2000/svg" xmlns:xlink="http://www.w3.org/1999/xlink" version="1.1" width="1080" height="1080" viewBox="0 0 1080 1080" xml:space="preserve">
<desc>Created with Fabric.js 5.2.4</desc>
<defs>
</defs>
<rect x="0" y="0" width="100%" height="100%" fill="transparent"></rect>
<g transform="matrix(1 0 0 1 540 540)" id="3079e7d0-c628-4ee6-99ee-7730d2e86c18"  >
<rect style="stroke: none; stroke-width: 1; stroke-dasharray: none; stroke-linecap: butt; stroke-dashoffset: 0; stroke-linejoin: miter; stroke-miterlimit: 4; fill: rgb(255,255,255); fill-rule: nonzero; opacity: 1; visibility: hidden;" vector-effect="non-scaling-stroke"  x="-540" y="-540" rx="0" ry="0" width="1080" height="1080" />
</g>
<g transform="matrix(1 0 0 1 540 540)" id="fe19bb82-a9e0-4f31-b1b8-128ec4ed560c"  >
</g>
<g transform="matrix(-0.13 0 0 -0.13 539.74 539.72)"  >
<path style="stroke: rgb(0,0,0); stroke-width: 0; stroke-dasharray: none; stroke-linecap: butt; stroke-dashoffset: 0; stroke-linejoin: miter; stroke-miterlimit: 4; fill: rgb(0,0,0); fill-rule: nonzero; opacity: 1;" vector-effect="non-scaling-stroke"  transform=" translate(-1625, -1300)" d="M 1320 1683 C 1320 1678 1331 1646 1343 1610 L 1366 1545 L 1463 1542 C 1517 1541 1560 1535 1560 1530 C 1560 1524 1493 1385 1410 1220 C 1328 1055 1260 918 1260 915 C 1260 912 1297 910 1343 910 L 1426 910 L 1453 966 C 1469 997 1480 1024 1478 1025 C 1476 1026 1453 1032 1425 1038 C 1385 1046 1415 1048 1575 1046 L 1774 1045 L 1801 980 L 1829 915 L 1909 912 C 1954 910 1990 913 1990 918 C 1990 923 1981 950 1969 977 L 1948 1028 L 1887 1036 L 1825 1045 L 1908 1048 C 1953 1049 1990 1054 1990 1058 C 1990 1061 1978 1095 1964 1132 C 1940 1193 1934 1199 1907 1202 C 1877 1205 1874 1210 1817 1355 C 1784 1438 1755 1507 1753 1510 C 1750 1513 1745 1508 1740 1500 C 1700 1430 1710 1468 1757 1560 C 1789 1623 1817 1678 1818 1682 C 1820 1686 1709 1690 1571 1690 C 1433 1690 1320 1687 1320 1683 z M 1682 1276 C 1696 1240 1705 1209 1702 1206 C 1695 1199 1580 1198 1580 1205 C 1580 1216 1645 1340 1650 1340 C 1654 1340 1668 1311 1682 1276 z" stroke-linecap="round" />
</g>
</svg>